<svg id="Слой_1" data-name="Слой 1" xmlns="http://www.w3.org/2000/svg" viewBox="0 0 305.64 305.64"><defs><style>.cls-1{fill:none;}.cls-2{fill:#f1f1f1;}</style></defs><title>foxyd</title><rect class="cls-1" width="305.64" height="305.64"/><path class="cls-2" d="M493.74,415.71a24.45,24.45,0,0,0-9.51,4.39A43.05,43.05,0,0,0,474,431.46a61.32,61.32,0,0,0-5.49,10.24,1.82,1.82,0,0,1-1.7,1.23,58.28,58.28,0,0,1-9.69.07c-2.79-.16-5.58-.28-8.37-.53a149.88,149.88,0,0,1-17.18-2.57,127.53,127.53,0,0,1-19-5.36c-.36-.14-.78-.41-1.13-.08s-.09.75,0,1.13c.65,2.89,2.55,4.92,4.67,6.8q.58.52,1.18,1a1,1,0,0,1,.48,1.13,1.1,1.1,0,0,1-1,.73,57.7,57.7,0,0,1-5.85.51c-3.54.28-7.09.48-10.64.67l-9.81.55c-4.19.24-8.38.35-12.56.67-1.71.13-3.43.16-5.15.23-4,.15-7.9.41-11.85.57-2.55.11-5.1.31-7.65.5a5.48,5.48,0,0,0-3.49,1.63,45.75,45.75,0,0,0-11.79,18,42.76,42.76,0,0,0-2.35,11.23c-.73,9.54,1.72,18.37,5.77,26.87a93.33,93.33,0,0,0,5.1,9.1,4.08,4.08,0,0,0,3.74,2.07c4.23.14,8.46.33,12.68.63,2.15.15,4.32.18,6.46.22,3.8.06,7.59.26,11.38.35,4.71.11,9.44.05,14.14.27,3.76.18,7.51,0,11.27.18,6.23.23,12.46.33,18.69.52,4.55.14,9.1.32,13.65.46,5,.16,10.06.39,15.09.48a9.07,9.07,0,0,1,5.44,1.78,44.73,44.73,0,0,0,20,8.33,41.47,41.47,0,0,0,18.5-1.35c1.78-.54,3.59-1,5.32-1.71,2.35-.95,2.33-.95,3.54,1.29,1.41,2.61,3.84,3.92,6.52,4.75a31.13,31.13,0,0,0,13.05,1A37.49,37.49,0,0,0,541.62,530a13.62,13.62,0,0,0,6.9-12.6,7.22,7.22,0,0,0-4.15-6.66c-1.61-.83-1.66-1.4-.1-2.36a25.36,25.36,0,0,0,7.49-6.28A16.68,16.68,0,0,0,554,485.5c-1.22-3.28-3.86-4.87-7.32-5.14-.56,0-1.12,0-1.68,0s-1.19.07-1.47-.57.24-1,.61-1.44c.86-.94,1.82-1.8,2.6-2.82a31.87,31.87,0,0,0,6.85-19.44c0-6.17-3.4-10.56-9.36-12.19a30.33,30.33,0,0,0-13-.39c-1.74.28-3.49.43-5.21.85-1.34.33-1.71,0-1.71-1.41a28.25,28.25,0,0,0-.78-6.89,25.51,25.51,0,0,0-9-13.8,29.64,29.64,0,0,0-13.89-6.71c-.45-.08-1-.1-.93-.82h-4.32C495.29,415.8,494.33,415.59,493.74,415.71Zm49.54,95.09c1.71,1.17,3.15,2.48,3.42,4.66a12,12,0,0,1-6.61,12,38.52,38.52,0,0,1-14.65,4.15,34.8,34.8,0,0,1-10-.32,13.4,13.4,0,0,1-5.7-2.44,3.45,3.45,0,0,0,2.26-1.31c2.75-2.79,1.87-5.63-1.21-7.5-.79-.48-.79-.74-.44-1.42a17.59,17.59,0,0,1,1.95-2.87,2.6,2.6,0,0,1,2.21-1c1.76,0,3.52,0,5.28,0a55.66,55.66,0,0,0,20-3.66C540.92,510.73,542,509.9,543.28,510.8Zm5-28.95a6.48,6.48,0,0,1,4.07,4.71,16.49,16.49,0,0,1-.39,9.56c-1.53,4.22-4.75,6.93-8.54,9-5.8,3.21-12.12,4.65-18.66,5.34A51.49,51.49,0,0,1,509,510a10.66,10.66,0,0,1-6.35-3.33c-.22-.26-.6-.49-.4-.91s.55-.29.86-.29c2.1,0,2.7-1.62,3.27-3.15a3.6,3.6,0,0,0-1.05-4.15c-1.23-.91-2.44-2.11-4.28-1a11.39,11.39,0,0,1,3.92-5.43,31.34,31.34,0,0,1,6.61-4.09,2.73,2.73,0,0,1,1.85-.25,34.5,34.5,0,0,0,27.6-5.61,2.14,2.14,0,0,1,1-.45A14,14,0,0,1,548.29,481.86ZM524.5,447.45a1.83,1.83,0,0,0,0-.23c.19-2.89.2-2.33,3.14-2.69a42.85,42.85,0,0,1,4.87,0,29.86,29.86,0,0,1,9.43,1,13.85,13.85,0,0,1,5.34,2.63c2.75,2.3,3.52,5.4,3.19,8.76a31.55,31.55,0,0,1-5.11,14.57c-4.5,6.76-10.93,10.71-18.69,12.66a32,32,0,0,1-13.78.48c-.39-.07-.78-.16-1.17-.27-.77-.22-1.69-.29-2.2-.86s.22-1.38.33-2.09a5.33,5.33,0,0,0-4.08-6c-1-.21-1.45.44-2,1-.27.25-.51.8-.95.52s-.1-.74,0-1.11a2.59,2.59,0,0,1,2.46-2.26,11.92,11.92,0,0,0,6.21-3.19A39.67,39.67,0,0,0,524.5,447.45Zm-28.94-29a18,18,0,0,1,9.51,1.33,28.75,28.75,0,0,1,13.26,10.48,22.57,22.57,0,0,1,3.51,15.69c-.94,8.09-4.54,14.91-9.88,20.9a17,17,0,0,1-5.75,4.25,5.7,5.7,0,0,1-.55.23c-.84.27-2,.68-2.47,0s.69-1.18,1.2-1.65a3,3,0,0,0,1.05-2.66,7.81,7.81,0,0,0-1.34-4.28c-1.44-1.85-5.11-2.47-7.17-1.33a2.21,2.21,0,0,0-.82,1c-.47.88-.95,1.76-1.44,2.63-.17.29-.22.78-.67.74s-.48-.5-.63-.81A13.16,13.16,0,0,1,492,460a38.26,38.26,0,0,1,1.7-13.85c.43-1.37.88-2.74,1.36-4.09.67-1.89.5-2.53-1.17-4a.32.32,0,0,0,.06.43c1.31,1.31.89,2.66.27,4.16a39.66,39.66,0,0,0-3.45,17.26,15,15,0,0,0,1.82,6.76,1.59,1.59,0,0,1-.08,2c-2.53,3.67-5.29,7.12-9.07,9.61a2,2,0,0,0-.28.29c.34.38.74.23,1.11.17a39,39,0,0,0,15.49-5.46c1.08-.69,2,0,3,.19.37.07.21.43,0,.67a4.55,4.55,0,0,0-1.09,3.44c.07.72-.51,1-1,1.41a94.72,94.72,0,0,1-10.7,7.5c.84,0,1.69.06,2.53,0,3.7-.3,7.45-.28,11.06-1.19,2.15-.54,4.09-.82,5.93.71.44.36,1.14.31,1.75.87a44.56,44.56,0,0,0-5.45,2.16c-3.94,2.06-7,4.85-8.34,9.26a1.57,1.57,0,0,1-1.08,1,26,26,0,0,1-8.52,1.82c-.5,0-1,0-1.51,0,0,.55.31.58.53.7a32.14,32.14,0,0,0,9.82,3.4,1.66,1.66,0,0,1,1.44.91,13.09,13.09,0,0,0,9.29,7.43c.78.19,1.56.37,2.34.54s.8.47.28,1a14.21,14.21,0,0,0-3.53,5.08,1.51,1.51,0,0,1-1.34.86,31.93,31.93,0,0,1-10.73.18,1.24,1.24,0,0,0-.76.09,29.32,29.32,0,0,0,9.68,6,30.81,30.81,0,0,1-5.86,1.6,45.59,45.59,0,0,1-22.63-1.23,46.35,46.35,0,0,1-15.15-8.33,7.14,7.14,0,0,0-4.58-1.67c-4.79-.14-9.58-.25-14.36-.5-5-.26-10-.26-15-.52s-9.83.11-14.73-.42a4.21,4.21,0,0,1-1.06-.19,45.83,45.83,0,0,1-15.94-10,26.45,26.45,0,0,1-4.17-5.54c-.23-.39-.58-.77-.45-1.29.32-.19.56,0,.8.13,7,3.36,14.15,3.22,21.29.41a35,35,0,0,0,12-7.61c.17-.17.36-.32.53-.48.39-.36,1.22-.6,1-1.16s-1-.25-1.56-.18a10.93,10.93,0,0,1-8.47-2.13,19.67,19.67,0,0,1-4.68-5.25c-.37-.59-.15-.86.46-1,5.55-1.33,10-4.47,14-8.37.57-.55,1.18-1.07,1.77-1.61.2-.18.55-.31.44-.64s-.47-.23-.73-.3a7.86,7.86,0,0,0-2.27-.15A25.89,25.89,0,0,1,405,463a38.62,38.62,0,0,1-6.42-8.33c-.64-1.12-.57-1.2.67-1.33,8.69-.93,17-3.17,24.45-7.83,1.41-.88,1.39-.91,0-1.83l-4.23-2.85.16-.32c.94.27,1.87.55,2.81.79a168.76,168.76,0,0,0,24.27,4.42c7.38.81,14.76.62,22.15.67a1.89,1.89,0,0,0,2-1.41,59.09,59.09,0,0,1,10.56-18C485.19,422.67,489.62,419.27,495.56,418.45Z" transform="translate(-304.67 -322.4)"/></svg>