<svg id="Слой_1" data-name="Слой 1" xmlns="http://www.w3.org/2000/svg" viewBox="0 0 305.64 305.64"><defs><style>.cls-1{fill:none;}.cls-2{fill:#f1f1f1;}</style></defs><title>foxya</title><rect class="cls-1" width="305.64" height="305.64"/><path class="cls-2" d="M589.41,455.47a5.52,5.52,0,0,0-.77-.92,17.46,17.46,0,0,0-9-5.16,103,103,0,0,0-15.7-2.67q-8.64-.93-17.32-1.08c-6.79-.12-13.59-.34-20.38.18-1,.08-1.5-.09-1.42-1.34A25.2,25.2,0,0,0,520.6,428a32.23,32.23,0,0,0-13-10.9c-7.34-3.52-14.53-3.28-21.53.92-4.94,3-8.65,7.18-11.87,11.86a57.38,57.38,0,0,0-6,10.8,2.32,2.32,0,0,1-2.38,1.65c-2.76.15-5.49.08-8.25,0A145.3,145.3,0,0,1,442.38,441a147.94,147.94,0,0,1-27.76-6.46c-1.21-.41-2.39-.91-3.6-1.34-.46-.17-1-.25-.73.53.52,1.76.81,3.58,1.9,5.14a23.17,23.17,0,0,0,4.53,4.76c.2.16.59.27.5.6s-.5.34-.81.36c-1.15.08-2.3.24-3.46.28-2.71.1-5.42.33-8.13.5-4.94.31-9.87.64-14.81.91-3.87.21-7.74.32-11.61.51q-9.09.45-18.17.94c-2.51.14-5,.3-7.52.54a3.62,3.62,0,0,0-2.34.75,51.39,51.39,0,0,0-5.2,5.45c-8.31,10.32-11.74,22-9.83,35.18,1.46,10,5.72,19,11.32,27.37a2.17,2.17,0,0,0,1.75,1.09c3.38.2,6.77.49,10.15.63,3.71.15,7.42.33,11.13.46,5.75.2,11.5.26,17.25.51,3.75.17,7.5,0,11.27.2,4.38.27,8.78.08,13.18.25,5.23.2,10.46.3,15.69.49,5,.18,10,.28,15,.5,4,.17,7.91.15,11.86.28a6,6,0,0,1,3.54.87,52.28,52.28,0,0,0,12.34,6.84A43.3,43.3,0,0,0,491,531.66a45,45,0,0,0,12.3-3.54c1.53-.66,1.53-.63,2.22.82a8.38,8.38,0,0,0,2.38,3.11c3.55,2.79,7.77,3.52,12.06,3.73a40.54,40.54,0,0,0,17.69-3.15,22.35,22.35,0,0,0,7.61-4.91,14,14,0,0,0,3.84-10.87,7.55,7.55,0,0,0-4-6.55c-.48-.28-1.38-.28-1.38-.78s.9-.79,1.42-1.11a23.68,23.68,0,0,0,7.63-6.82,17.46,17.46,0,0,0,2.67-13.28c-.52-3-1.63-5.6-4.27-7.35-.15-.1-.35-.22-.2-.51A110.72,110.72,0,0,0,568,478.2c6-1.3,11.86-3,17-6.53,2.07-1.4,4.08-3,5.06-5.33a5.47,5.47,0,0,1,4.27-3.51c1.25-.27,2.48-.63,3.72-.92a43.12,43.12,0,0,1,6.07-.71,27.06,27.06,0,0,0-12.61-4.55A2.32,2.32,0,0,1,589.41,455.47ZM545.2,512.19a6.71,6.71,0,0,1,1.55,5c-.33,4.92-2.95,8.24-7.18,10.41a38.43,38.43,0,0,1-14.46,3.94,32.49,32.49,0,0,1-11.4-.79,10.53,10.53,0,0,1-3.84-1.94,5.36,5.36,0,0,0,2.87-2.26c1.81-2.8.65-4.94-2-6.59-.78-.49-.79-.75-.44-1.43a15.27,15.27,0,0,1,2-3,2.62,2.62,0,0,1,2.31-.94,59.48,59.48,0,0,0,25.4-3.77A4,4,0,0,1,545.2,512.19Zm40.52-46c-3.4,3.79-7.88,5.82-12.51,7.53-7.76,2.87-15.84,4.48-24,5.89-1.67.29-3.32-.17-5,0a22.33,22.33,0,0,0-8,2.51c1.53-.29,3.05-.63,4.59-.87a18.72,18.72,0,0,1,5.26-.06c3.44.42,5.72,2.36,6.3,5.8,1.1,6.55,0,11.87-6.68,16.56-5,3.5-10.66,5.26-16.6,6.22-7.19,1.16-14.38,1.51-21.54-.27a9.75,9.75,0,0,1-5.22-3.22c-.17-.2-.47-.38-.3-.71s.41-.19.65-.22a4.25,4.25,0,0,0,3.86-4.33,4.59,4.59,0,0,0-3.74-4.39c-.65-.12-1.12.37-1.92.42,1-3,3.13-4.87,5.44-6.56a61.9,61.9,0,0,1,7.44-4.26c-.6.13-1.22.22-1.81.39-4.24,1.19-8.26,2.76-11.37,6.09a12.78,12.78,0,0,0-3,5.1,2.08,2.08,0,0,1-1.51,1.51,28,28,0,0,1-9.15,1.73,5.79,5.79,0,0,0-.71.1,8.15,8.15,0,0,0,3,1.71,29.46,29.46,0,0,0,7.81,2.28,1.17,1.17,0,0,1,1,.7c2.18,4.75,6.1,7.11,11,8.08.44.09,1.11-.05,1.24.5s-.49.77-.82,1.09a14.51,14.51,0,0,0-2.84,4.13,2.22,2.22,0,0,1-1.85,1.31,30.46,30.46,0,0,1-10.61.1,6.3,6.3,0,0,0-.79,0,30.7,30.7,0,0,0,9.59,6c-.21.5-.56.52-.85.61a46.41,46.41,0,0,1-17.67,1.85,43.8,43.8,0,0,1-23.8-9.58,11.11,11.11,0,0,0-7.12-2.41c-6.34-.13-12.68-.53-19-.72-1.63,0-3.27-.13-4.9-.18-4.63-.13-9.27-.38-13.9-.24C408.58,516.6,403,513,397.6,509a28.11,28.11,0,0,1-7.33-8,5,5,0,0,1-.91-2.17,25.8,25.8,0,0,0,19.29,1.82,38.2,38.2,0,0,0,16.65-10.27,5.11,5.11,0,0,0-2.24-.15c-5.41.58-9-2.21-12-6.28-1.32-1.82-1.29-1.81.86-2.42a30.57,30.57,0,0,0,10.31-5.73,43.45,43.45,0,0,0,4.1-3.86c.24-.24.67-.45.49-.87s-.62-.3-1-.29a30.61,30.61,0,0,1-9-.91,26.8,26.8,0,0,1-11.25-6.38,38.46,38.46,0,0,1-7-8.81c-.71-1.23-.68-1.3.72-1.46a64.64,64.64,0,0,0,18.09-4.52,46,46,0,0,0,6.76-3.61c.68-.44.69-.73,0-1.19a23.14,23.14,0,0,1-4.58-3.49c1.1.29,2.2.56,3.3.86a158,158,0,0,0,24,4.35,198.54,198.54,0,0,0,21.43.67,2.39,2.39,0,0,0,2.52-1.71,62.57,62.57,0,0,1,8.81-15.76,30.34,30.34,0,0,1,10.08-8.7c5.41-2.73,10.79-2.46,16.19-.06a30.19,30.19,0,0,1,9.12,6.12A22,22,0,0,1,521.7,439c1.07,7.71-1,14.72-5,21.29a30,30,0,0,1-8.13,9.33,7.88,7.88,0,0,1-4.81,1.93c-.31,0-.74.09-.89-.21s.3-.58.52-.82c1-1,2.22-1.83,2-3.59s-.51-3.63-2-5c-1.75-1.53-4.84-1.3-6.6-.52-.34.15-.49.51-.66.83-.46.84-.9,1.69-1.39,2.52-.21.35-.24,1-.78.92s-.56-.64-.72-1a16.06,16.06,0,0,1-1.28-5.57c-.3-6.12,1.15-11.9,3.24-17.57.52-1.42.23-2.23-1.33-3.49,0,.08,0,.18,0,.22,1.34,1.42,1,2.86.28,4.48a42.06,42.06,0,0,0-3.18,11.78c-.44,4.29-.53,8.56,1.88,12.43.36.59,0,1-.26,1.41a34,34,0,0,1-9.15,9.86,2.24,2.24,0,0,0-.3.35,4.74,4.74,0,0,0,2.59-.16,37.87,37.87,0,0,0,13.77-5,2.33,2.33,0,0,1,2.14-.33c2.79,1,5.28.17,7.62-1.35a33.48,33.48,0,0,0,10.84-12.26,37.15,37.15,0,0,0,4.06-10.6c.19-.95.64-1.37,1.63-1.3,3.46.24,6.93.44,10.39.67,2.43.16,4.85.39,7.28.53,3.75.22,7.48.61,11.21.93q8.06.69,16,2a49.27,49.27,0,0,1,11,2.81,13.85,13.85,0,0,1,3.32,2.12.88.88,0,0,1,.14,1.36,6.31,6.31,0,0,0-.93,1.8,3.77,3.77,0,0,0,1.33,4.38C586.61,464.92,586.62,465.19,585.72,466.19Z" transform="translate(-304.67 -322.4)"/></svg>