<svg xmlns="http://www.w3.org/2000/svg" viewBox="0 0 270.48 270.48"><defs><style>.cls-1{fill:none;}.cls-2{fill:#f2f2f2;}</style></defs><title>foxy</title><g id="Слой_2" data-name="Слой 2"><rect class="cls-1" width="270.48" height="270.48"/></g><g id="Слой_1" data-name="Слой 1"><path class="cls-2" d="M534.36,479.94a81.19,81.19,0,0,1-10.64-2.54,56.19,56.19,0,0,1-10.11-4.29,39.46,39.46,0,0,1-8.87-6.58,29.73,29.73,0,0,1-3.55-4.32,19,19,0,0,1-2.5-5.15l-.56-1.95,1.8,1.08a25.47,25.47,0,0,0,8.41,3.29,23.44,23.44,0,0,0,8.95-.06,29.66,29.66,0,0,0,8.46-3.12,34.87,34.87,0,0,0,7.31-5.26l1,2.28a12.61,12.61,0,0,1-5.3-.82,15.74,15.74,0,0,1-4.51-2.74,23.08,23.08,0,0,1-3.49-3.79,26.34,26.34,0,0,1-2.65-4.41l-1-2.07,2.36,0a17,17,0,0,0,7.91-2.53,32.82,32.82,0,0,0,3.63-2.43,34.42,34.42,0,0,0,3.28-2.85l1.18,2.85a29.73,29.73,0,0,1-9.75-1.66,30.23,30.23,0,0,1-8.65-4.8,37.35,37.35,0,0,1-6.83-7,43.48,43.48,0,0,1-2.71-4.07,35.75,35.75,0,0,1-2.24-4.45l-1-2.41,2.69-.14a66.52,66.52,0,0,0,6.67-.61,58.88,58.88,0,0,0,6.56-1.29,55.45,55.45,0,0,0,6.34-2.06c1-.4,2-.85,3-1.32a30.56,30.56,0,0,0,2.81-1.52l0,3.28c-.88-.57-1.75-1.15-2.6-1.78s-1.68-1.3-2.47-2a20.7,20.7,0,0,1-2.27-2.4,14.58,14.58,0,0,1-1-1.42c-.16-.26-.31-.52-.45-.81s-.14-.3-.21-.46a4.88,4.88,0,0,1-.22-.64l-1-3.64,3.63,1.34a119.43,119.43,0,0,0,13.36,3.93c4.54,1.09,9.14,2,13.77,2.66s9.28,1.17,13.95,1.39,9.34.21,14,0l-1.71,1.27a67.07,67.07,0,0,1,4.46-9.35,59.11,59.11,0,0,1,5.89-8.53,36.6,36.6,0,0,1,7.77-7.11,22.71,22.71,0,0,1,10.09-3.79,22.09,22.09,0,0,1,10.65,1.56,34.3,34.3,0,0,1,9,5.44,28,28,0,0,1,6.8,8.08,25.32,25.32,0,0,1,3,10.14,30.73,30.73,0,0,1-1,10.41,40.13,40.13,0,0,1-4,9.54,39.51,39.51,0,0,1-6.23,8.22,25.34,25.34,0,0,1-4,3.32,11,11,0,0,1-5.12,1.91,5.7,5.7,0,0,1-1.46-.13l-1.28-.28-1.26-.37-1.24-.46a13.51,13.51,0,0,1-4.44-2.88,12.73,12.73,0,0,1-2.87-4.43,17.36,17.36,0,0,1-1.05-5.08A33.3,33.3,0,0,1,604,410a62.11,62.11,0,0,1,3.3-9.53l0,.19-4-6.28,4.34,6.05.06.08,0,.11a69.61,69.61,0,0,0-2.89,9.56A32.36,32.36,0,0,0,604,420a16.13,16.13,0,0,0,1.13,4.68,11.32,11.32,0,0,0,2.68,3.85,11.93,11.93,0,0,0,4,2.42l1.13.38,1.16.3,1.18.22a3.82,3.82,0,0,0,1,.07,9.24,9.24,0,0,0,4.12-1.75A23.32,23.32,0,0,0,624.1,427a37.29,37.29,0,0,0,5.68-7.89c3.1-5.7,4.88-12.21,4.29-18.53a22.38,22.38,0,0,0-2.82-8.92,24.92,24.92,0,0,0-6.19-7.08c-5-3.94-11.16-6.79-17.24-6a19.18,19.18,0,0,0-8.49,3.32,33,33,0,0,0-6.92,6.48,55.4,55.4,0,0,0-5.42,8,67.54,67.54,0,0,0-4.14,8.78l-.46,1.22-1.25,0c-4.8.19-9.61.29-14.4,0s-9.57-.7-14.32-1.38-9.46-1.57-14.13-2.69a122.62,122.62,0,0,1-13.87-4.14l2.64-2.3c0-.12,0,0,0,.06l.1.22c.08.16.18.33.28.5a10.72,10.72,0,0,0,.73,1,16.83,16.83,0,0,0,1.85,2c.67.63,1.41,1.21,2.16,1.79s1.55,1.1,2.35,1.62l2.58,1.68-2.56,1.6a33.25,33.25,0,0,1-3.27,1.77c-1.09.51-2.18,1-3.3,1.42a59.31,59.31,0,0,1-6.8,2.18,62.73,62.73,0,0,1-7,1.35,70,70,0,0,1-7.09.57l1.7-2.55a32.68,32.68,0,0,0,1.93,3.93,39.8,39.8,0,0,0,2.44,3.75,33.76,33.76,0,0,0,6.1,6.44,26.15,26.15,0,0,0,16.23,5.9l4,.11L536.69,434a37.31,37.31,0,0,1-3.69,3.11,36,36,0,0,1-4,2.6,20,20,0,0,1-9.45,2.78l1.38-2.11a23.68,23.68,0,0,0,2.26,3.89,20.21,20.21,0,0,0,3,3.36,13,13,0,0,0,3.66,2.32,10.14,10.14,0,0,0,4.15.74l3.63-.11-2.63,2.39a37.16,37.16,0,0,1-8,5.51,32,32,0,0,1-9.2,3.13,25.18,25.18,0,0,1-9.74-.19,27.28,27.28,0,0,1-8.89-3.82l1.24-.87a17.82,17.82,0,0,0,2.12,4.71,28.38,28.38,0,0,0,3.24,4.22,38.39,38.39,0,0,0,8.4,6.68,59.67,59.67,0,0,0,9.82,4.6A80.94,80.94,0,0,0,534.36,479.94Z" transform="translate(-447 -308.32)"/><path class="cls-2" d="M634.13,405.25a50.25,50.25,0,0,1,14.23-2.62,29.31,29.31,0,0,1,7.42.7,14.6,14.6,0,0,1,6.94,3.69,11.63,11.63,0,0,1,2.36,3.41,13.9,13.9,0,0,1,1.05,3.94,23.26,23.26,0,0,1-.51,7.71,34.05,34.05,0,0,1-6.21,13.73,32.32,32.32,0,0,1-11.9,9.29,35.58,35.58,0,0,1-14.59,3.18,30.27,30.27,0,0,1-7.44-.85,18.52,18.52,0,0,1-6.85-3.19,19.36,19.36,0,0,1-2.76-2.53,8.1,8.1,0,0,1-1.9-3.35,4.6,4.6,0,0,1,.67-3.75,7.11,7.11,0,0,1,2.81-2.3,7.16,7.16,0,0,0-2.32,2.6,3.8,3.8,0,0,0-.15,3.15c.85,2,2.78,3.44,4.72,4.64,3.83,2.37,8.61,2.77,13.12,2.52,9.09-.63,18-4.76,23.45-11.86a30.81,30.81,0,0,0,5.64-12.11,19.78,19.78,0,0,0,.73-6.51,9.45,9.45,0,0,0-2.2-5.56,12.08,12.08,0,0,0-5.38-3.3,27.2,27.2,0,0,0-6.74-1.26A65.59,65.59,0,0,0,634.13,405.25Z" transform="translate(-447 -308.32)"/><path class="cls-2" d="M647.09,442.9a26.86,26.86,0,0,1,7.26-2.67,12.92,12.92,0,0,1,8,.58,8.16,8.16,0,0,1,3.28,2.8,11.57,11.57,0,0,1,1.67,3.9,18.3,18.3,0,0,1,.49,4.07,19,19,0,0,1-.33,4.12,16.81,16.81,0,0,1-3.67,7.52,25.25,25.25,0,0,1-6.3,5.25,45.59,45.59,0,0,1-14.94,5.41,60.07,60.07,0,0,1-15.75,1,36.07,36.07,0,0,1-7.95-1.37,20.65,20.65,0,0,1-2-.72,13.49,13.49,0,0,1-2-1.06,13.1,13.1,0,0,1-3.2-3,12.11,12.11,0,0,1-2.41-8.27,11.48,11.48,0,0,1,1.17-4.16,14,14,0,0,1,2.45-3.4,15.87,15.87,0,0,1,3.14-2.55,25.11,25.11,0,0,1,3.5-1.85,33.58,33.58,0,0,1,7.45-2.12,43.88,43.88,0,0,0-6.85,3.29,20.39,20.39,0,0,0-5.55,4.71,10.32,10.32,0,0,0-2.36,6.24,9.37,9.37,0,0,0,2.2,6,9.56,9.56,0,0,0,2.42,2.11,10.14,10.14,0,0,0,1.43.69,17,17,0,0,0,1.64.54,36.14,36.14,0,0,0,7.14,1.11,63.69,63.69,0,0,0,14.75-1,45.75,45.75,0,0,0,13.82-4.71c4.17-2.32,7.73-5.8,8.87-10.27a16.51,16.51,0,0,0,.46-3.48,18.43,18.43,0,0,0-.16-3.54,7.36,7.36,0,0,0-3.34-5.54,11.9,11.9,0,0,0-7-1.2A30.68,30.68,0,0,0,647.09,442.9Z" transform="translate(-447 -308.32)"/><path class="cls-2" d="M650.31,469.35a12.93,12.93,0,0,1,5.63.73,7.81,7.81,0,0,1,4.48,4,10.57,10.57,0,0,1,.63,6.09,19,19,0,0,1-.67,2.91,11.19,11.19,0,0,1-1.4,2.87c-2.42,3.52-6,5.57-9.62,7.09a41,41,0,0,1-11.3,2.78,36.92,36.92,0,0,1-5.84.2,31.64,31.64,0,0,1-5.89-.78,16,16,0,0,1-5.74-2.49,9.09,9.09,0,0,1-2.38-2.5,7.31,7.31,0,0,1-1.11-3.42,7.92,7.92,0,0,1,.08-1.74l.16-.82.2-.71a24.52,24.52,0,0,1,1-2.8,16.06,16.06,0,0,1,3.24-5,11.32,11.32,0,0,1,5.09-3.1,10.47,10.47,0,0,1,5.71,0,10.94,10.94,0,0,0-9.13,4.53,15.68,15.68,0,0,0-2.2,4.62,21.52,21.52,0,0,0-.61,2.54l-.12.65-.06.55a6,6,0,0,0,0,1,4.46,4.46,0,0,0,2.21,3.22,14.31,14.31,0,0,0,4.51,1.73,35.29,35.29,0,0,0,10.47.41A43.21,43.21,0,0,0,648,489.58a25.6,25.6,0,0,0,4.71-2.22,14.54,14.54,0,0,0,3.81-3.19,8.27,8.27,0,0,0,1.21-2,21.92,21.92,0,0,0,.84-2.46,8.84,8.84,0,0,0,.1-4.9,6.59,6.59,0,0,0-3.19-3.73A14.38,14.38,0,0,0,650.31,469.35Z" transform="translate(-447 -308.32)"/><path class="cls-2" d="M619.93,485.83a34.8,34.8,0,0,1-6,3.15,41.75,41.75,0,0,1-6.54,2.1,42.93,42.93,0,0,1-13.79,1,39.41,39.41,0,0,1-6.89-1.19,45.53,45.53,0,0,1-6.64-2.25,55.14,55.14,0,0,1-12-7.25l1.12.42-27.41-.91c-9.13-.33-18.27-.56-27.38-.76s-18.29-.31-27.43-.6-18.3-.66-27.44-1.23c9.15-.57,18.3-1,27.44-1.23s18.29-.5,27.45-.58,18.33.19,27.49.42,18.3.67,27.44,1.1l.65,0,.47.39a52.27,52.27,0,0,0,10.95,7.13,43,43,0,0,0,12.46,3.89,44.67,44.67,0,0,0,13.2.06A46.12,46.12,0,0,0,619.93,485.83Z" transform="translate(-447 -308.32)"/><path class="cls-2" d="M608.67,421.67s-5.67,12.67-14,17.33c0,0,13.67-.67,22.67-10C617.33,429,619,418.67,608.67,421.67Z" transform="translate(-447 -308.32)"/><path class="cls-2" d="M622.46,479.94s-10.26,3.39-17.32,1.05c0,0,7.56,7.51,17.66,7.79C622.79,488.78,629.61,484.31,622.46,479.94Z" transform="translate(-447 -308.32)"/><path class="cls-2" d="M614.61,456.78s-9.39,5.35-16.78,4.45c0,0,8.9,5.87,18.85,4.15C616.68,465.37,622.49,459.65,614.61,456.78Z" transform="translate(-447 -308.32)"/><path class="cls-2" d="M617.13,435.33s6.14.77,4.55,7.17c-1,4.09-20.15,4.09-20.15,4.09S607.85,444.11,617.13,435.33Z" transform="translate(-447 -308.32)"/><path class="cls-2" d="M535.81,404.5A101,101,0,0,1,518,408.82a170.58,170.58,0,0,1-18.22,1.93c-3.05.12-6.1.26-9.16.24s-6.11,0-9.15-.22-6.09-.42-9.13-.68-6.06-.75-9.08-1.3c3.05-.34,6.09-.46,9.13-.66l4.55-.25c1.51-.08,3-.12,4.54-.22l18.1-.89,18.08-1Z" transform="translate(-447 -308.32)"/></g><g id="Слой_3" data-name="Слой 3"><path class="cls-2" d="M463.25,408.79s-33.92,25.54-3.75,69.54h66.17s-19.65-5.65-25.94-20.68c0,0,18,10.47,33.82-5.23,0,0-7.68,2.24-13.74-11.46,0,0,12.07-3.46,15.69-8.14,0,0-19.62.21-29.5-22Z" transform="translate(-447 -308.32)"/></g></svg>