<svg xmlns="http://www.w3.org/2000/svg" viewBox="0 0 192.95 144.86"><defs><style>.cls-1{fill:#ebebeb;}</style></defs><title>Ресурс 1</title><g id="Слой_2" data-name="Слой 2"><g id="axe-menu"><path class="cls-1" d="M111.71,134.7c.39,3.7-2.5,10.16-9,10.15-8.12,0-12.44-7.07-12.69-13-.19-4.39,2-9,6.29-12.46,2.62-2.11,5.76-3.85,8.61-6.32-9.67-7.43-12.85-17.58-11.81-30-2.72,2.83-5.64,5.5-8.07,8.56-.84,1.06-.88,3.13-.62,4.62a144.26,144.26,0,0,0,3.38,16.09c1.76,5.95.05,9.9-6.11,12.69C80,117,78.25,108.33,76.55,100c-2.67,2.5-4.71,4.25-4.71,4.25a84.11,84.11,0,0,1,1.63,8.92c.76,6.15.38,9.05-5.76,11.82l-2.87-12.85L48,126.16l-1.57-1.67c1.78-2,15.15-14.43,17.65-17.18,0,0-.33-2.47-2.88-15.26-1.67-8.39-3-17-5.23-25.36-1.64-6.25.29-10.12,6.18-13.2C65.1,68.87,68,84.74,71,100.11c4.25-3.08,4.85-5,4-8.81-1.85-8.44-3.41-16.95-5-25.45-1.34-7.28-1-7.93,6.19-12.2l1.25,5.48c3.05-3,5.71-6.26,9-8.58,2-1.42,5.93-2.69,7.47-1.69,2,1.3,2.73,4.85,3.52,7.57.41,1.42-.24,3.15-.45,5.14,2.94-2.81,5.14-4.51,7.7-7,.88-.9,1.45-.53,1.31.08-.77,3.59-1.48,7-2.25,10.57l.71.49L116,51.86l1.62,8.47c2.73-2.45,5-4.75,7.54-6.7,3.15-2.4,7.1-6,10.55-2.8,2.12,1.95,3.1,5.35,2.08,10.47-.26,1.28-.37,2.28-.71,3.51a10.3,10.3,0,0,1,2.3-1.25c15.56-5.22,26.48,1.69,31.05,17.75,5,17.6,3.78,32.36-12.55,40.63-4.86,2.46-12.25,5-20.8,2.4-7.77-2.37-15.74-4.09-23.67-5.87a16.47,16.47,0,0,0-6.42.09c-4.34.8-8.38,2.86-8.56,7.67-.11,2.78.48,6.16,2.16,7.79C104.14,137.52,108,137.61,111.71,134.7Zm49.88-51.88-31.9,30.56c5.8,1.61,10.81,3.23,15.93,4.36,6.32,1.39,14-1.93,16.05-7.29A36.76,36.76,0,0,0,161.59,82.83ZM110.11,66.26C99.88,72.36,99.81,81.71,101.61,91c1.65,8.51,6.72,14.88,16.49,17.83ZM125,97.94c7.84-8.79,16.57-18.22,24.79-27.44-8.27-4.89-16.48-.25-22.6,6.88C122.46,82.91,123.15,91.25,125,97.94Zm27.35-24.58a26.9,26.9,0,0,0-3.52,3.46c-6.6,7.5-13,15.2-20,22.35-2.24,2.15-2.93,5.09-1.46,9.39,8.88-8.37,17.75-16.67,26.54-25C159.63,78.15,159.59,79.1,152.38,73.36ZM85.46,78.55l-1.52-1.4c.91-1.51,2.19-2.92,2.66-4.56a84.91,84.91,0,0,0,3.14-13.31c.28-2.24-1.78-5.5-4.2-3-3,3-6.14,7.43-6.23,11.3-.14,6.62,2.06,13.29,3.5,21.16,5.35-6.78,13.51-10,13-19.78Zm35.9-.83c2.17-2.46,3.83-4.36,5.36-6.23,2.75-3.36,4.15-6.26,4.05-9.76-.05-1.91-.67-3.59-1.75-4.16s-3.16.33-4.31,1.22C119.09,63.63,118.53,66.63,121.36,77.72Z"/><path class="cls-1" d="M34.65,125.79,23.18,60.45c-.77.67-1.38,1.13-1.9,1.68-7,7.23-17.33,1.44-19.8-8.27C-2,40.24.44,31.23,10.73,20.57c3.53-3.66,6.48-6.25,5.77-13.05C16.34,6,19.79,3.31,22.57,0l18,114.62c7.5-6.68,8.7-7.14,7.45-15-2-12.48-4.1-24.95-5.67-37.48-.29-2.31,1.33-5.18,2.8-7.29a73.41,73.41,0,0,1,5.68-6.37c.87-1,1.72-1.67,1.59-2.89-.75-7.09-1.47-5.47,5.08-10,1.13-.79,1.28.56,1.65,1.58s.72,1.8,1.19,2.93l9.09-6.76c.44.44,2,.32,2.41.75-1.59,1.87-4.15,4.43-5.9,6.15l-11.23,11c-3.21,3.14-5.08,6.58-4.35,10.71,2.21,12.61,4.08,25.28,6,37.94a11.49,11.49,0,0,1-1.63,8.35c-1.8,2.65-1.8,2.65-13.41,12.81A68.29,68.29,0,0,1,34.65,125.79ZM17.76,19.28C6.82,25.19,6.31,48.21,11.18,55.14c2.85,4.05,6.76,5.54,12,3.31Z"/><path class="cls-1" d="M187.26,109.87c4.19,0,6.18,5.28,5.6,7.57-1.25,4.93-4.67,5.52-7.81,5.37-3.67-.18-5.27-2.45-5.23-6C179.86,113.12,181.8,109.68,187.26,109.87Z"/></g></g></svg>