<svg id="Слой_1" data-name="Слой 1" xmlns="http://www.w3.org/2000/svg" viewBox="0 0 331 331"><defs><style>.cls-1{fill:none;}.cls-2{fill:#e6e6e6;}</style></defs><title>m-i1</title><path class="cls-1" d="M368,419V750H699V419ZM523.31,533c-7.32,4.17-18,2.25-23.77-3.68-9.8-10-7.8-30.57,7.79-32.65,6.37-.85,6.29,9.16,0,10-6.09.81-3.72,11.84-1.28,15s8.68,5,12.21,2.73,1.58-7.55.58-10.71c-2-6.16,7.71-8.77,9.64-2.66C530.95,518.76,531.39,528.41,523.31,533Zm54.91-11c-1.38,4.18-3.95,7.92-8.22,9.45-4.76,1.71-10.75,1.11-14.25-2.83-4.76-5.36-2.18-16.6,3.13-22.57,2.31-4.44,6.1-7.41,12.1-5.85C580,502.58,580.61,514.8,578.22,522Z" transform="translate(-368 -419)"/><path class="cls-1" d="M568.86,510.82a5,5,0,0,1-2.19,1.34c.89-.28.13,0-.25.5l0,0a36.9,36.9,0,0,0-.73,8.32,5.36,5.36,0,0,1-.2,1.44,4.86,4.86,0,0,0,1.94-.89c1.09-1,1.54-3.12,1.78-4.5a12.48,12.48,0,0,0-.1-5.61A6,6,0,0,0,568.86,510.82Z" transform="translate(-368 -419)"/><path class="cls-2" d="M566.47,569.59c13.92-7,27.84-20.88,27.84-48.72,0-55.68-55.68-53.69-55.68-53.69s-55.68-2-55.68,53.69c0,27.84,13.92,41.76,27.84,48.72,0,0-73.78,35.83-81.53,132.24H629C629.78,622.42,566.47,569.59,566.47,569.59Zm-43.24-38c-6.41,3.65-15.73,2-20.81-3.23-8.07-8.26-7-24.64,4.51-28.08a8.65,8.65,0,0,1,2.1-.46l.21,0a4.49,4.49,0,0,1,1.16,0c4,.12,8.44,2.24,11.26,4.4a6.48,6.48,0,0,1,1,.95c.13.11.28.22.4.34a19,19,0,0,1,4.12,5.67,4.71,4.71,0,0,1,.58,1.2c0,.14.08.28.12.42a18.33,18.33,0,0,1,1.21,6.56C529.36,524.16,528,528.87,523.23,531.58Zm38.71.84a10.41,10.41,0,0,1-8.77-6.34c-4.23-7.56.76-19.56,8.15-23.44,2.29-2.34,5.42-3.5,9.65-2.4,9,2.34,9.64,14.56,7.25,21.8-1.38,4.18-3.95,7.92-8.22,9.45a15.25,15.25,0,0,1-2.06.57A10.9,10.9,0,0,1,561.94,532.41Z" transform="translate(-368 -419)"/></svg>