<svg id="Слой_1" data-name="Слой 1" xmlns="http://www.w3.org/2000/svg" viewBox="0 0 331 331"><defs><style>.cls-1{fill:none;}.cls-2{fill:#ebebeb;}</style></defs><title>m-i2</title><rect class="cls-1" width="331" height="331"/><path class="cls-2" d="M595,642.36H415.89l10,10,7.4-60.29,11.87-96.68,2.71-22.11-10,10H616.95l-10-10-7.4,60.29-11.87,96.68L585,652.36c-.66,5.37,5.07,10,10,10,6,0,9.34-4.61,10-10l7.4-60.29,11.87-96.68,2.71-22.11c.66-5.38-5.12-10-10-10H437.87c-5.89,0-9.34,4.62-10,10l-7.4,60.29L408.6,630.25l-2.71,22.11c-.66,5.38,5.12,10,10,10H595C607.83,662.36,607.85,642.36,595,642.36Z" transform="translate(-368 -419)"/><polygon class="cls-2" points="269.57 291.49 92.81 289.1 101.29 233.33 227.11 235.75 240.11 123.78 290.59 123.78 269.57 291.49"/><path class="cls-2" d="M637.57,705.49l-59.46-.81-95.42-1.29-21.89-.3,4.82,6.33,8.48-55.77-4.82,3.67,109.95,2.12,15.88.31c2.93.06,4.69-2.35,5-5l11.38-98,1.62-13.94-5,5h50.48l-5-5-18.4,146.85-2.61,20.86c-.8,6.37,9.21,6.31,10,0L661,563.64l2.61-20.86c.34-2.69-2.56-5-5-5H608.11c-2.93,0-4.69,2.31-5,5l-11.38,98-1.62,13.94,5-5-109.95-2.12-15.88-.31c-2,0-4.5,1.57-4.82,3.67L456,706.77c-.48,3.19,1.27,6.28,4.82,6.33l59.46.81,95.42,1.29,21.89.3C644,715.58,644,705.58,637.57,705.49Z" transform="translate(-368 -419)"/></svg>